<svg id="Component_52_2" data-name="Component 52 – 2" xmlns="http://www.w3.org/2000/svg" width="197" height="49" viewBox="0 0 197 49">
  <rect id="Rectangle_1485" data-name="Rectangle 1485" width="197" height="49" fill="#fff"/>
  <g id="Group_970" data-name="Group 970" transform="translate(80 5.669)">
    <path id="Path_442" data-name="Path 442" d="M259.952,28.244h-5.7c.155-.9.706-1.4,1.826-1.963l1.051-.534C259,24.782,260,23.7,260,21.923a3.1,3.1,0,0,0-1.292-2.635,4.958,4.958,0,0,0-3.066-.947,4.76,4.76,0,0,0-2.6.741,4.4,4.4,0,0,0-1.722,1.877l1.654,1.654a3,3,0,0,1,2.79-1.929c1.033,0,1.671.534,1.671,1.275,0,.62-.31,1.137-1.5,1.74l-.672.327a7.289,7.289,0,0,0-3.066,2.549,6.843,6.843,0,0,0-.878,3.634v.4h8.629v-2.36Zm-.762,5.085h-9.44l-4.72,8.176h9.441l4.72,8.176,4.72-8.176Z" transform="translate(-226.766 -16.977)" fill="#ff492c"/>
    <path id="Path_443" data-name="Path 443" d="M19.077,30.036a10.9,10.9,0,0,1,0-21.8L22.809.425a19.078,19.078,0,1,0,7.5,34.128l-4.133-7.158a10.85,10.85,0,0,1-7.1,2.641Z" transform="translate(0 -0.059)" fill="#ff492c"/>
  </g>
</svg>
