<svg id="Component_53_2" data-name="Component 53 – 2" xmlns="http://www.w3.org/2000/svg" width="197" height="49" viewBox="0 0 197 49">
  <rect id="Rectangle_1486" data-name="Rectangle 1486" width="197" height="49" fill="#fff"/>
  <g id="capterra_logo" data-name="capterra logo" transform="translate(23 8)">
    <path id="Path_794" data-name="Path 794" d="M8.905,54.354l13.9,0h8.45V45.987Z" transform="translate(-8.905 -42.034)" fill="#ff9d28"/>
    <path id="Path_795" data-name="Path 795" d="M226.285,11.487V41.041L236.839,7.534Z" transform="translate(-203.939 -7.534)" fill="#68c5ed"/>
    <path id="Path_796" data-name="Path 796" d="M152.536,127.408h-8.45l8.45,21.185Z" transform="translate(-130.19 -115.084)" fill="#044d80"/>
    <path id="Path_797" data-name="Path 797" d="M8.905,127.38l16.063,5.438L22.8,127.383Z" transform="translate(-8.905 -115.06)" fill="#e54747"/>
    <g id="Group_1186" data-name="Group 1186" transform="translate(35.948 5.985)">
      <path id="Path_798" data-name="Path 798" d="M373.848,85.5a3.9,3.9,0,0,1-.612.459,6.71,6.71,0,0,1-1.117.551,9.8,9.8,0,0,1-1.683.474,11.738,11.738,0,0,1-2.28.2,10.572,10.572,0,0,1-4.285-.8,7.979,7.979,0,0,1-2.984-2.219,9.094,9.094,0,0,1-1.729-3.367,15.621,15.621,0,0,1-.551-4.27,14.8,14.8,0,0,1,.6-4.3,9.648,9.648,0,0,1,1.79-3.413,8.229,8.229,0,0,1,2.984-2.25,10.128,10.128,0,0,1,4.208-.811,9.99,9.99,0,0,1,2.158.214,10.761,10.761,0,0,1,1.684.505,6.489,6.489,0,0,1,1.194.612,7.878,7.878,0,0,1,.719.536,2.437,2.437,0,0,1,.474.582,1.421,1.421,0,0,1,.2.735,2.034,2.034,0,0,1-.459,1.224,8.838,8.838,0,0,1-1.01,1.133q-.367-.367-.826-.75a5.592,5.592,0,0,0-1.025-.673,6.8,6.8,0,0,0-1.286-.49,6.031,6.031,0,0,0-1.607-.2,4.806,4.806,0,0,0-4.316,2.265,6.946,6.946,0,0,0-.918,2.311,12.753,12.753,0,0,0-.275,2.648,13.417,13.417,0,0,0,.275,2.755,6.569,6.569,0,0,0,.949,2.326,5.067,5.067,0,0,0,1.76,1.622,5.449,5.449,0,0,0,2.709.612,5.5,5.5,0,0,0,1.576-.214,6.317,6.317,0,0,0,1.27-.521,6.526,6.526,0,0,0,.964-.642q.413-.337.689-.582.184.215.428.52a7.36,7.36,0,0,1,.459.643,5.59,5.59,0,0,1,.367.673,1.5,1.5,0,0,1,.153.612,1.37,1.37,0,0,1-.153.674A2.922,2.922,0,0,1,373.848,85.5Zm15.773-2.347a6.781,6.781,0,0,0,.708,3.541A6.055,6.055,0,0,1,389.3,87a5.253,5.253,0,0,1-1,.092,2.753,2.753,0,0,1-1.678-.431,1.932,1.932,0,0,1-.724-1.232,5.556,5.556,0,0,1-1.786,1.2,6.67,6.67,0,0,1-2.71.493,6.227,6.227,0,0,1-1.663-.23,4.37,4.37,0,0,1-1.509-.752,3.9,3.9,0,0,1-1.109-1.4,4.788,4.788,0,0,1-.431-2.133,4.064,4.064,0,0,1,.754-2.548,5.372,5.372,0,0,1,1.894-1.55,8.575,8.575,0,0,1,2.463-.782,23.442,23.442,0,0,1,2.432-.277q.37-.03.724-.031h.662v-.56a2.02,2.02,0,0,0-.631-1.682,3.328,3.328,0,0,0-2.048-.5,6.066,6.066,0,0,0-2.356.431,19.266,19.266,0,0,0-2.017.985,4.517,4.517,0,0,1-.693-1.155,2.782,2.782,0,0,1-.262-.939,1.112,1.112,0,0,1,.477-.831,4.686,4.686,0,0,1,1.309-.724,10.666,10.666,0,0,1,1.909-.523,12.473,12.473,0,0,1,2.279-.2,10.131,10.131,0,0,1,2.817.339,4.405,4.405,0,0,1,1.878,1.047,3.978,3.978,0,0,1,1.031,1.771,8.956,8.956,0,0,1,.308,2.479v5.789Zm-3.942-3.572h-.431a3.078,3.078,0,0,0-.431.031q-.77.062-1.524.185a4.372,4.372,0,0,0-1.339.431,2.81,2.81,0,0,0-.955.8,2.049,2.049,0,0,0-.369,1.263,2.23,2.23,0,0,0,.493,1.462,2.038,2.038,0,0,0,1.663.6,3.893,3.893,0,0,0,1.109-.154,3.787,3.787,0,0,0,.924-.4,2.386,2.386,0,0,0,.631-.539.9.9,0,0,0,.231-.539V79.583Zm11.608-6.066a5.748,5.748,0,0,1,1.535-1.186,5.236,5.236,0,0,1,2.64-.6,6.127,6.127,0,0,1,2.164.385,4.741,4.741,0,0,1,1.826,1.247,6.227,6.227,0,0,1,1.274,2.279,11.033,11.033,0,0,1,.476,3.479,11.99,11.99,0,0,1-.553,3.957,6.766,6.766,0,0,1-1.427,2.464,4.918,4.918,0,0,1-1.949,1.278,6.574,6.574,0,0,1-2.149.37,5.365,5.365,0,0,1-1.55-.2,6.208,6.208,0,0,1-1.121-.447,2.974,2.974,0,0,1-.706-.493,2.919,2.919,0,0,1-.307-.339V93.28h-4.188V72.162q.155-.03.372-.061.186-.03.435-.046t.589-.015a4.033,4.033,0,0,1,1.737.339A1.594,1.594,0,0,1,397.288,73.517Zm5.543,5.7a9.19,9.19,0,0,0-.153-1.724,4.193,4.193,0,0,0-.505-1.386,2.457,2.457,0,0,0-.949-.909,3.02,3.02,0,0,0-1.454-.323,2.552,2.552,0,0,0-1.791.492,1.486,1.486,0,0,0-.505,1.078V82.97a3.917,3.917,0,0,0,.872.585,3.013,3.013,0,0,0,1.454.339,2.483,2.483,0,0,0,2.3-1.232A6.757,6.757,0,0,0,402.83,79.213Zm7.6,5.3a5.349,5.349,0,0,1-.277-1.293q-.062-.677-.062-1.355V67.574q.215-.03.462-.062.215-.03.462-.046t.493-.015a5.349,5.349,0,0,1,.986.092,2.3,2.3,0,0,1,.893.369,2.033,2.033,0,0,1,.647.754,2.726,2.726,0,0,1,.246,1.247V72.1H418.6v3.11h-4.311v6.566q0,2.148,1.755,2.148a2.386,2.386,0,0,0,.816-.139,4.839,4.839,0,0,0,.693-.308,3.769,3.769,0,0,0,.539-.354q.231-.185.323-.277a10.381,10.381,0,0,1,.708,1.173,2.1,2.1,0,0,1,.246.93,1.232,1.232,0,0,1-.323.793,3.188,3.188,0,0,1-.908.715,5.653,5.653,0,0,1-1.416.528,7.685,7.685,0,0,1-1.817.2,5.149,5.149,0,0,1-2.971-.739,3.93,3.93,0,0,1-1.493-1.94Zm18.766-.4a4.914,4.914,0,0,0,1.36-.169,5.433,5.433,0,0,0,1.05-.415,4.37,4.37,0,0,0,.8-.539q.34-.292.618-.539a8.584,8.584,0,0,1,.772,1.185,2.625,2.625,0,0,1,.4,1.186,1.545,1.545,0,0,1-.77,1.232,5.762,5.762,0,0,1-1.832.847,9.791,9.791,0,0,1-2.787.354,11.115,11.115,0,0,1-2.848-.369,6.3,6.3,0,0,1-2.494-1.293,6.646,6.646,0,0,1-1.771-2.479,9.872,9.872,0,0,1-.677-3.926,8.454,8.454,0,0,1,.6-3.341,6.7,6.7,0,0,1,1.6-2.325,6.312,6.312,0,0,1,2.263-1.355,7.959,7.959,0,0,1,2.587-.431A7.13,7.13,0,0,1,431,72.27a5.331,5.331,0,0,1,1.955,1.447,5.7,5.7,0,0,1,1.093,2.078,8.828,8.828,0,0,1,.339,2.463v.431c0,.165-.005.339-.015.523s-.021.365-.031.539a3.345,3.345,0,0,1-.046.416h-9.084a4.862,4.862,0,0,0,1.051,2.818A3.587,3.587,0,0,0,429.2,84.109Zm1.4-6.251a4.5,4.5,0,0,0-.573-2.4,2.228,2.228,0,0,0-2.059-.924,2.546,2.546,0,0,0-2.029.878,3.622,3.622,0,0,0-.759,2.448H430.6Zm11.075-4.264a5.313,5.313,0,0,1,.493-.611,3.5,3.5,0,0,1,.754-.611,4.835,4.835,0,0,1,.985-.458,3.558,3.558,0,0,1,1.155-.183,5.455,5.455,0,0,1,.785.061,2.718,2.718,0,0,1,.77.229,1.492,1.492,0,0,1,.57.458,1.172,1.172,0,0,1,.216.717,4.342,4.342,0,0,1-.339,1.543,12.582,12.582,0,0,1-.677,1.487,4.565,4.565,0,0,0-1.047-.662,3.034,3.034,0,0,0-1.232-.231,2.37,2.37,0,0,0-1.6.556,1.7,1.7,0,0,0-.647,1.328v9.968h-4.188V72.162q.154-.03.369-.061.185-.03.431-.046t.585-.015a3.618,3.618,0,0,1,1.709.382A1.71,1.71,0,0,1,441.679,73.595Zm11.906,0a5.343,5.343,0,0,1,.493-.611,3.494,3.494,0,0,1,.754-.611,4.836,4.836,0,0,1,.985-.458,3.559,3.559,0,0,1,1.155-.183,5.456,5.456,0,0,1,.785.061,2.723,2.723,0,0,1,.77.229,1.5,1.5,0,0,1,.57.458,1.172,1.172,0,0,1,.215.717,4.344,4.344,0,0,1-.339,1.543,12.641,12.641,0,0,1-.677,1.487,4.559,4.559,0,0,0-1.047-.662,3.033,3.033,0,0,0-1.231-.231,2.371,2.371,0,0,0-1.6.556,1.7,1.7,0,0,0-.647,1.328v9.968h-4.188V72.162q.154-.03.37-.061.185-.03.431-.046t.585-.015a3.617,3.617,0,0,1,1.709.382A1.711,1.711,0,0,1,453.586,73.595Zm19.984,9.56a6.781,6.781,0,0,0,.708,3.541,6.063,6.063,0,0,1-1.031.308,5.254,5.254,0,0,1-1,.092,2.753,2.753,0,0,1-1.678-.431,1.933,1.933,0,0,1-.724-1.232,5.55,5.55,0,0,1-1.786,1.2,6.67,6.67,0,0,1-2.71.493,6.228,6.228,0,0,1-1.663-.23,4.367,4.367,0,0,1-1.509-.752,3.9,3.9,0,0,1-1.109-1.4,4.789,4.789,0,0,1-.431-2.133,4.062,4.062,0,0,1,.754-2.548,5.371,5.371,0,0,1,1.894-1.55,8.573,8.573,0,0,1,2.463-.782,23.431,23.431,0,0,1,2.432-.277q.37-.03.724-.031h.662v-.56a2.02,2.02,0,0,0-.631-1.682,3.327,3.327,0,0,0-2.048-.5,6.065,6.065,0,0,0-2.355.431,19.273,19.273,0,0,0-2.017.985,4.521,4.521,0,0,1-.693-1.155,2.785,2.785,0,0,1-.262-.939,1.112,1.112,0,0,1,.477-.831,4.685,4.685,0,0,1,1.309-.724,10.668,10.668,0,0,1,1.909-.523,12.476,12.476,0,0,1,2.279-.2,10.135,10.135,0,0,1,2.818.339,4.405,4.405,0,0,1,1.878,1.047,3.98,3.98,0,0,1,1.032,1.771,8.966,8.966,0,0,1,.308,2.479Zm-3.941-3.572H469.2a3.08,3.08,0,0,0-.431.031q-.77.062-1.524.185a4.373,4.373,0,0,0-1.339.431,2.809,2.809,0,0,0-.955.8,2.049,2.049,0,0,0-.37,1.263,2.23,2.23,0,0,0,.493,1.462,2.038,2.038,0,0,0,1.663.6,3.892,3.892,0,0,0,1.108-.154,3.784,3.784,0,0,0,.924-.4,2.385,2.385,0,0,0,.631-.539.9.9,0,0,0,.231-.539V79.583Z" transform="translate(-358.605 -65.76)" fill="#044d80"/>
    </g>
  </g>
</svg>
