<svg xmlns="http://www.w3.org/2000/svg" xmlns:xlink="http://www.w3.org/1999/xlink" width="1084" height="550" viewBox="0 0 1084 550">
  <defs>
    <filter id="Rectangle_1438" x="236.5" y="107.5" width="726" height="83" filterUnits="userSpaceOnUse">
      <feOffset dy="1" input="SourceAlpha"/>
      <feGaussianBlur stdDeviation="1.5" result="blur"/>
      <feFlood flood-color="#7e7e7e" flood-opacity="0.161"/>
      <feComposite operator="in" in2="blur"/>
      <feComposite in="SourceGraphic"/>
    </filter>
    <filter id="Rectangle_1438-2" x="236.5" y="431.5" width="409" height="109" filterUnits="userSpaceOnUse">
      <feOffset dy="1" input="SourceAlpha"/>
      <feGaussianBlur stdDeviation="1.5" result="blur-2"/>
      <feFlood flood-color="#7e7e7e" flood-opacity="0.161"/>
      <feComposite operator="in" in2="blur-2"/>
      <feComposite in="SourceGraphic"/>
    </filter>
    <filter id="Rectangle_1481" x="650.5" y="431.5" width="312" height="109" filterUnits="userSpaceOnUse">
      <feOffset dy="1" input="SourceAlpha"/>
      <feGaussianBlur stdDeviation="1.5" result="blur-3"/>
      <feFlood flood-color="#7e7e7e" flood-opacity="0.161"/>
      <feComposite operator="in" in2="blur-3"/>
      <feComposite in="SourceGraphic"/>
    </filter>
  </defs>
  <g id="Group_1376" data-name="Group 1376" transform="translate(-140 -66)">
    <rect id="Rectangle_1430" data-name="Rectangle 1430" width="873" height="550" rx="4" transform="translate(245 66)" fill="#f8f8f8"/>
    <g id="Rectangle_1431" data-name="Rectangle 1431" transform="translate(140 66)" fill="#f4fdfd" stroke="#3498db" stroke-width="1">
      <rect width="94" height="550" rx="4" stroke="none"/>
      <rect x="0.5" y="0.5" width="93" height="549" rx="3.5" fill="none"/>
    </g>
    <g id="Rectangle_1467" data-name="Rectangle 1467" transform="translate(1130 66)" fill="#f4fdfd" stroke="#3498db" stroke-width="1">
      <rect width="94" height="550" rx="4" stroke="none"/>
      <rect x="0.5" y="0.5" width="93" height="549" rx="3.5" fill="none"/>
    </g>
    <g transform="matrix(1, 0, 0, 1, 140, 66)" filter="url(#Rectangle_1438)">
      <rect id="Rectangle_1438-3" data-name="Rectangle 1438" width="717" height="74" rx="37" transform="translate(241 111)" fill="#fff"/>
    </g>
    <g transform="matrix(1, 0, 0, 1, 140, 66)" filter="url(#Rectangle_1438-2)">
      <rect id="Rectangle_1438-4" data-name="Rectangle 1438" width="400" height="100" rx="50" transform="translate(241 435)" fill="#fff"/>
    </g>
    <g transform="matrix(1, 0, 0, 1, 140, 66)" filter="url(#Rectangle_1481)">
      <rect id="Rectangle_1481-2" data-name="Rectangle 1481" width="303" height="100" rx="49" transform="translate(655 435)" fill="#fff"/>
    </g>
    <text id="Windows" transform="translate(454 576)" fill="#666667" font-size="14" font-family="ProximaNova-Medium, Proxima Nova" font-weight="500"><tspan x="-28" y="0">Windows</tspan></text>
    <text id="Security" transform="translate(426 404)" fill="#666667" font-size="18" font-family="ProximaNova-Medium, Proxima Nova" font-weight="500"><tspan x="-32" y="0">Security</tspan></text>
    <text id="CRM" transform="translate(404 321)" fill="#666667" font-size="18" font-family="ProximaNova-Medium, Proxima Nova" font-weight="500"><tspan x="-19" y="0">CRM</tspan></text>
    <text id="User_Interface" data-name="User Interface" transform="translate(456 117)" fill="#666667" font-size="18" font-family="ProximaNova-Medium, Proxima Nova" font-weight="500"><tspan x="-56" y="0">User Interface</tspan></text>
    <text id="Rest_API" data-name="Rest API" transform="translate(721 117)" fill="#666667" font-size="18" font-family="ProximaNova-Medium, Proxima Nova" font-weight="500"><tspan x="-33" y="0">Rest API</tspan></text>
    <text id="Batch_Scripts" data-name="Batch Scripts" transform="translate(981 117)" fill="#666667" font-size="18" font-family="ProximaNova-Medium, Proxima Nova" font-weight="500"><tspan x="-52" y="0">Batch Scripts</tspan></text>
    <text id="Integration" transform="translate(526 220)" fill="#666667" font-size="18" font-family="ProximaNova-Bold, Proxima Nova" font-weight="700"><tspan x="-44" y="0">Integration</tspan></text>
    <text id="Replication" transform="translate(746 220)" fill="#666667" font-size="18" font-family="ProximaNova-Bold, Proxima Nova" font-weight="700"><tspan x="-45" y="0">Replication</tspan></text>
    <text id="Backup_Restore" data-name="Backup / Restore" transform="translate(990 220)" fill="#666667" font-size="18" font-family="ProximaNova-Bold, Proxima Nova" font-weight="700"><tspan x="-69" y="0">Backup / Restore</tspan></text>
    <text id="Scheduler" transform="translate(582 404)" fill="#666667" font-size="18" font-family="ProximaNova-Medium, Proxima Nova" font-weight="500"><tspan x="-40" y="0">Scheduler</tspan></text>
    <text id="Accounting" transform="translate(544 321)" fill="#666667" font-size="18" font-family="ProximaNova-Medium, Proxima Nova" font-weight="500"><tspan x="-45" y="0">Accounting</tspan></text>
    <text id="Monitoring" transform="translate(745 404)" fill="#666667" font-size="18" font-family="ProximaNova-Medium, Proxima Nova" font-weight="500"><tspan x="-42" y="0">Monitoring</tspan></text>
    <text id="Database" transform="translate(683 321)" fill="#666667" font-size="18" font-family="ProximaNova-Medium, Proxima Nova" font-weight="500"><tspan x="-37" y="0">Database</tspan></text>
    <text id="Engine" transform="translate(887 404)" fill="#666667" font-size="18" font-family="ProximaNova-Medium, Proxima Nova" font-weight="500"><tspan x="-27" y="0">Engine</tspan></text>
    <text id="BigData" transform="translate(907 321)" fill="#666667" font-size="18" font-family="ProximaNova-Medium, Proxima Nova" font-weight="500"><tspan x="-31" y="0">BigData</tspan></text>
    <text id="Workflow" transform="translate(1036 404)" fill="#666667" font-size="18" font-family="ProximaNova-Medium, Proxima Nova" font-weight="500"><tspan x="-37" y="0">Workflow</tspan></text>
    <text id="Your_Custom" data-name="Your Custom" transform="translate(1030 321)" fill="#666667" font-size="18" font-family="ProximaNova-Medium, Proxima Nova" font-weight="500"><tspan x="-50" y="0">Your Custom</tspan></text>
    <text id="User_Role" data-name="User/Role" transform="translate(426 460)" fill="#666667" font-size="18" font-family="ProximaNova-Medium, Proxima Nova" font-weight="500"><tspan x="-39" y="0">User/Role</tspan></text>
    <text id="Containerized" transform="translate(582 460)" fill="#666667" font-size="18" font-family="ProximaNova-Medium, Proxima Nova" font-weight="500"><tspan x="-55" y="0">Containerized</tspan></text>
    <text id="Logging" transform="translate(745 460)" fill="#666667" font-size="18" font-family="ProximaNova-Medium, Proxima Nova" font-weight="500"><tspan x="-32" y="0">Logging</tspan></text>
    <text id="API" transform="translate(887 460)" fill="#666667" font-size="18" font-family="ProximaNova-Medium, Proxima Nova" font-weight="500"><tspan x="-13" y="0">API</tspan></text>
    <text id="Template" transform="translate(1036 460)" fill="#666667" font-size="18" font-family="ProximaNova-Medium, Proxima Nova" font-weight="500"><tspan x="-36" y="0">Template</tspan></text>
    <text id="MacOS" transform="translate(614 576)" fill="#666667" font-size="14" font-family="ProximaNova-Medium, Proxima Nova" font-weight="500"><tspan x="-22" y="0">MacOS</tspan></text>
    <text id="Linux" transform="translate(536 576)" fill="#666667" font-size="14" font-family="ProximaNova-Medium, Proxima Nova" font-weight="500"><tspan x="-16" y="0">Linux</tspan></text>
    <text id="Solaris" transform="translate(709 576)" fill="#666667" font-size="14" font-family="ProximaNova-Medium, Proxima Nova" font-weight="500"><tspan x="-20" y="0">Solaris</tspan></text>
    <text id="Cloud_AWS" data-name="Cloud/AWS" transform="translate(891 576)" fill="#666667" font-size="14" font-family="ProximaNova-Medium, Proxima Nova" font-weight="500"><tspan x="-35" y="0">Cloud/AWS</tspan></text>
    <path id="Rectangle_1451" data-name="Rectangle 1451" d="M4,0h98a0,0,0,0,1,0,0V91a0,0,0,0,1,0,0H4a4,4,0,0,1-4-4V4A4,4,0,0,1,4,0Z" transform="translate(245 66)" fill="#e2f1ff"/>
    <path id="Rectangle_1452" data-name="Rectangle 1452" d="M4,0h98a0,0,0,0,1,0,0V108a0,0,0,0,1,0,0H4a4,4,0,0,1-4-4V4A4,4,0,0,1,4,0Z" transform="translate(245 158)" fill="#b9f5e6"/>
    <path id="Rectangle_1454" data-name="Rectangle 1454" d="M4,0h98a0,0,0,0,1,0,0V98a0,0,0,0,1,0,0H4a4,4,0,0,1-4-4V4A4,4,0,0,1,4,0Z" transform="translate(245 266)" fill="#dee0ff"/>
    <path id="Rectangle_1482" data-name="Rectangle 1482" d="M4,0h98a0,0,0,0,1,0,0V52a0,0,0,0,1,0,0H4a4,4,0,0,1-4-4V4A4,4,0,0,1,4,0Z" transform="translate(751 289)" fill="#dee0ff"/>
    <path id="Rectangle_1463" data-name="Rectangle 1463" d="M4,0h98a0,0,0,0,1,0,0V130a0,0,0,0,1,0,0H4a4,4,0,0,1-4-4V4A4,4,0,0,1,4,0Z" transform="translate(245 486)" fill="#dbe3eb"/>
    <path id="Rectangle_1461" data-name="Rectangle 1461" d="M4,0h98a0,0,0,0,1,0,0V120a0,0,0,0,1,0,0H4a4,4,0,0,1-4-4V4A4,4,0,0,1,4,0Z" transform="translate(245 366)" fill="#ffebe2"/>
    <text id="On-Premise" transform="translate(1016 576)" fill="#666667" font-size="14" font-family="ProximaNova-Medium, Proxima Nova" font-weight="500"><tspan x="-36" y="0">On-Premise</tspan></text>
    <text id="WEB" transform="translate(296 115.5)" fill="#40a2e6" font-size="14" font-family="ProximaNova-Bold, Proxima Nova" font-weight="700" letter-spacing="0.09em"><tspan x="-16" y="0">WEB</tspan></text>
    <text id="Engine-2" data-name="Engine" transform="translate(271 215.5)" fill="#2ecaa2" font-size="14" font-family="ProximaNova-Bold, Proxima Nova" font-weight="700" letter-spacing="0.09em"><tspan x="0" y="0">Engine</tspan></text>
    <text id="Adapter" transform="translate(267 311)" fill="#5b62cf" font-size="14" font-family="ProximaNova-Bold, Proxima Nova" font-weight="700" letter-spacing="0.09em"><tspan x="0" y="0">Adapter</tspan></text>
    <text id="Deploy" transform="translate(271 556)" fill="#367ec7" font-size="14" font-family="ProximaNova-Bold, Proxima Nova" font-weight="700" letter-spacing="0.09em"><tspan x="0" y="0">Deploy</tspan></text>
    <text id="Feature" transform="translate(268 431)" fill="#ac6161" font-size="14" font-family="ProximaNova-Bold, Proxima Nova" font-weight="700" letter-spacing="0.09em"><tspan x="0" y="0">Feature</tspan></text>
    <text id="API-2" data-name="API" transform="translate(791.5 320)" fill="#5b62cf" font-size="14" font-family="ProximaNova-Bold, Proxima Nova" font-weight="700" letter-spacing="0.09em"><tspan x="0" y="0">API</tspan></text>
    <g id="Group_991" data-name="Group 991" transform="translate(157.508 82.351)">
      <text id="Web_Service" data-name="Web Service" transform="translate(29.492 54.701)" fill="#42a4e5" font-size="10" font-family="ProximaNova-Semibold, Proxima Nova" font-weight="600" letter-spacing="0.01em"><tspan x="-28" y="0">Web Service</tspan></text>
      <text id="Files" transform="translate(29.493 130.56)" fill="#42a4e5" font-size="10" font-family="ProximaNova-Semibold, Proxima Nova" font-weight="600" letter-spacing="0.01em"><tspan x="-10" y="0">Files</tspan></text>
      <text id="CRM-2" data-name="CRM" transform="translate(29.493 205.155)" fill="#42a4e5" font-size="10" font-family="ProximaNova-Semibold, Proxima Nova" font-weight="600" letter-spacing="0.01em"><tspan x="-10" y="0">CRM</tspan></text>
      <text id="Cloud_Apps" data-name="Cloud Apps" transform="translate(29.493 278.485)" fill="#42a4e5" font-size="10" font-family="ProximaNova-Semibold, Proxima Nova" font-weight="600" letter-spacing="0.01em"><tspan x="-26" y="0">Cloud Apps</tspan></text>
      <text id="Database-2" data-name="Database" transform="translate(29.493 353.08)" fill="#42a4e5" font-size="10" font-family="ProximaNova-Semibold, Proxima Nova" font-weight="600" letter-spacing="0.01em"><tspan x="-21" y="0">Database</tspan></text>
      <text id="On-Premise-2" data-name="On-Premise" transform="translate(29.493 428.939)" fill="#42a4e5" font-size="10" font-family="ProximaNova-Semibold, Proxima Nova" font-weight="600" letter-spacing="0.01em"><tspan x="-26" y="0">On-Premise</tspan></text>
      <text id="Messages" transform="translate(29.493 503.534)" fill="#42a4e5" font-size="10" font-family="ProximaNova-Semibold, Proxima Nova" font-weight="600" letter-spacing="0.01em"><tspan x="-22" y="0">Messages</tspan></text>
      <path id="Icon_awesome-file-signature" data-name="Icon awesome-file-signature" d="M12.118,23.559a.615.615,0,0,0-.565-.362.606.606,0,0,0-.557.344l-.426.852a.889.889,0,0,1-1.637-.116L8,21.474l-.589,1.771a2.4,2.4,0,0,1-2.277,1.64H4.444a.889.889,0,1,1,0-1.777h.688a.623.623,0,0,0,.591-.425l1.01-3.035a1.334,1.334,0,0,1,2.53,0l.771,2.313a2.493,2.493,0,0,1,3.666.787.63.63,0,0,0,.52.348V18.532l7.11-7.059V8.887H13.775a1.337,1.337,0,0,1-1.333-1.333V0H1.333A1.33,1.33,0,0,0,0,1.333V27.107A1.33,1.33,0,0,0,1.333,28.44H20a1.33,1.33,0,0,0,1.333-1.333V24.885l-7.11-.006A2.385,2.385,0,0,1,12.118,23.559ZM21.33,6.771a1.329,1.329,0,0,0-.389-.939L15.5.389A1.332,1.332,0,0,0,14.559,0H14.22V7.11h7.11ZM16,19.272v3.835h3.832l8.981-9.042-3.77-3.77L16,19.272ZM31.58,9.295l-1.77-1.77a1.415,1.415,0,0,0-2,0L26.3,9.038l3.77,3.77,1.514-1.514A1.414,1.414,0,0,0,31.58,9.295Z" transform="translate(13.491 81.714)" fill="#42a4e5"/>
      <path id="Icon_awesome-globe" data-name="Icon awesome-globe" d="M18.059,8.72C17.281,3.927,15.445.563,13.309.563S9.338,3.927,8.56,8.72Zm-9.9,5.152a33.639,33.639,0,0,0,.177,3.435h9.945a33.638,33.638,0,0,0,.177-3.435,33.638,33.638,0,0,0-.177-3.435H8.335A33.639,33.639,0,0,0,8.157,13.872ZM25.583,8.72a13.338,13.338,0,0,0-8.479-7.6,18.113,18.113,0,0,1,2.683,7.6ZM9.51,1.121a13.329,13.329,0,0,0-8.474,7.6h5.8a18.04,18.04,0,0,1,2.678-7.6Zm16.648,9.317H20c.113,1.127.177,2.281.177,3.435S20.114,16.18,20,17.307h6.15a13.2,13.2,0,0,0,.462-3.435A13.425,13.425,0,0,0,26.157,10.437ZM6.44,13.872c0-1.154.064-2.308.177-3.435H.462a13.011,13.011,0,0,0,0,6.869h6.15C6.5,16.18,6.44,15.026,6.44,13.872Zm2.12,5.152c.778,4.792,2.614,8.157,4.75,8.157s3.971-3.365,4.75-8.157Zm8.549,7.6a13.35,13.35,0,0,0,8.479-7.6h-5.8a18.113,18.113,0,0,1-2.683,7.6Zm-16.073-7.6a13.338,13.338,0,0,0,8.479,7.6,18.113,18.113,0,0,1-2.683-7.6h-5.8Z" transform="translate(15.491 13.087)" fill="#42a4e5"/>
      <path id="Icon_ionic-md-person" data-name="Icon ionic-md-person" d="M18.032,18.032a6.766,6.766,0,1,0-6.766-6.766A6.786,6.786,0,0,0,18.032,18.032Zm0,3.383C13.549,21.415,4.5,23.7,4.5,28.18v3.383H31.563V28.18C31.563,23.7,22.514,21.415,18.032,21.415Z" transform="translate(10.991 155.269)" fill="#42a4e5"/>
      <path id="Icon_material-cloud-circle" data-name="Icon material-cloud-circle" d="M18.035,3A15.035,15.035,0,1,0,33.07,18.035,15.041,15.041,0,0,0,18.035,3ZM24.8,24.049H12.021a4.511,4.511,0,1,1,0-9.021l.21.015a6,6,0,0,1,11.818,1.488H24.8a3.759,3.759,0,1,1,0,7.518Z" transform="translate(11.493 226.432)" fill="#42a4e5"/>
      <path id="Icon_awesome-database" data-name="Icon awesome-database" d="M26.762,4.369V7.1c0,2.407-5.994,4.369-13.381,4.369S0,9.507,0,7.1V4.369C0,1.963,5.994,0,13.381,0S26.762,1.963,26.762,4.369Zm0,6.144v6.144c0,2.407-5.994,4.369-13.381,4.369S0,19.065,0,16.658V10.514c2.875,1.98,8.137,2.9,13.381,2.9S23.888,12.494,26.762,10.514Zm0,9.558v6.144c0,2.407-5.994,4.369-13.381,4.369S0,28.623,0,26.216V20.072c2.875,1.98,8.137,2.9,13.381,2.9S23.888,22.052,26.762,20.072Z" transform="translate(15.491 308.359)" fill="#42a4e5"/>
      <path id="Icon_material-laptop" data-name="Icon material-laptop" d="M30.07,27.049a3.016,3.016,0,0,0,3.007-3.007V9.007A3.016,3.016,0,0,0,30.07,6H6.014A3.016,3.016,0,0,0,3.007,9.007V24.042a3.016,3.016,0,0,0,3.007,3.007H0v3.007H36.084V27.049ZM6.014,9.007H30.07V24.042H6.014Z" transform="translate(11.493 381.801)" fill="#42a4e5"/>
      <path id="Icon_awesome-envelope-open-text" data-name="Icon awesome-envelope-open-text" d="M9.51,11.671h8.645a.864.864,0,0,0,.865-.865V9.942a.864.864,0,0,0-.865-.865H9.51a.864.864,0,0,0-.865.865v.865A.864.864,0,0,0,9.51,11.671Zm-.865,4.323a.864.864,0,0,0,.865.865h8.645a.864.864,0,0,0,.865-.865v-.865a.864.864,0,0,0-.865-.865H9.51a.864.864,0,0,0-.865.865Zm5.187,6.545a4.316,4.316,0,0,1-2.532-.821L0,13.555V25.071a2.594,2.594,0,0,0,2.594,2.594H25.071a2.594,2.594,0,0,0,2.594-2.594V13.555l-11.3,8.163A4.32,4.32,0,0,1,13.832,22.538ZM26.671,8.8c-.478-.375-.932-.728-1.6-1.232V5.187a2.594,2.594,0,0,0-2.594-2.594h-4.19L17.8,2.239C16.891,1.576,15.086-.019,13.832,0c-1.254-.019-3.058,1.576-3.967,2.239l-.488.354H5.187A2.594,2.594,0,0,0,2.594,5.187V7.572c-.668.5-1.122.857-1.6,1.232A2.593,2.593,0,0,0,0,10.845v.575l5.187,3.747V5.187h17.29v9.981l5.187-3.747v-.575A2.593,2.593,0,0,0,26.671,8.8Z" transform="translate(15.491 458.166)" fill="#42a4e5"/>
    </g>
    <g id="Group_1367" data-name="Group 1367" transform="translate(1147.508 82.351)">
      <text id="Web_Service-2" data-name="Web Service" transform="translate(29.492 54.701)" fill="#42a4e5" font-size="10" font-family="ProximaNova-Semibold, Proxima Nova" font-weight="600" letter-spacing="0.01em"><tspan x="-28" y="0">Web Service</tspan></text>
      <text id="Files-2" data-name="Files" transform="translate(29.493 130.56)" fill="#42a4e5" font-size="10" font-family="ProximaNova-Semibold, Proxima Nova" font-weight="600" letter-spacing="0.01em"><tspan x="-10" y="0">Files</tspan></text>
      <text id="CRM-3" data-name="CRM" transform="translate(29.493 205.155)" fill="#42a4e5" font-size="10" font-family="ProximaNova-Semibold, Proxima Nova" font-weight="600" letter-spacing="0.01em"><tspan x="-10" y="0">CRM</tspan></text>
      <text id="Cloud_Apps-2" data-name="Cloud Apps" transform="translate(29.493 278.485)" fill="#42a4e5" font-size="10" font-family="ProximaNova-Semibold, Proxima Nova" font-weight="600" letter-spacing="0.01em"><tspan x="-26" y="0">Cloud Apps</tspan></text>
      <text id="Database-3" data-name="Database" transform="translate(29.493 353.08)" fill="#42a4e5" font-size="10" font-family="ProximaNova-Semibold, Proxima Nova" font-weight="600" letter-spacing="0.01em"><tspan x="-21" y="0">Database</tspan></text>
      <text id="On-Premise-3" data-name="On-Premise" transform="translate(29.493 428.939)" fill="#42a4e5" font-size="10" font-family="ProximaNova-Semibold, Proxima Nova" font-weight="600" letter-spacing="0.01em"><tspan x="-26" y="0">On-Premise</tspan></text>
      <text id="Messages-2" data-name="Messages" transform="translate(29.493 503.534)" fill="#42a4e5" font-size="10" font-family="ProximaNova-Semibold, Proxima Nova" font-weight="600" letter-spacing="0.01em"><tspan x="-22" y="0">Messages</tspan></text>
      <path id="Icon_awesome-file-signature-2" data-name="Icon awesome-file-signature" d="M12.118,23.559a.615.615,0,0,0-.565-.362.606.606,0,0,0-.557.344l-.426.852a.889.889,0,0,1-1.637-.116L8,21.474l-.589,1.771a2.4,2.4,0,0,1-2.277,1.64H4.444a.889.889,0,1,1,0-1.777h.688a.623.623,0,0,0,.591-.425l1.01-3.035a1.334,1.334,0,0,1,2.53,0l.771,2.313a2.493,2.493,0,0,1,3.666.787.63.63,0,0,0,.52.348V18.532l7.11-7.059V8.887H13.775a1.337,1.337,0,0,1-1.333-1.333V0H1.333A1.33,1.33,0,0,0,0,1.333V27.107A1.33,1.33,0,0,0,1.333,28.44H20a1.33,1.33,0,0,0,1.333-1.333V24.885l-7.11-.006A2.385,2.385,0,0,1,12.118,23.559ZM21.33,6.771a1.329,1.329,0,0,0-.389-.939L15.5.389A1.332,1.332,0,0,0,14.559,0H14.22V7.11h7.11ZM16,19.272v3.835h3.832l8.981-9.042-3.77-3.77L16,19.272ZM31.58,9.295l-1.77-1.77a1.415,1.415,0,0,0-2,0L26.3,9.038l3.77,3.77,1.514-1.514A1.414,1.414,0,0,0,31.58,9.295Z" transform="translate(13.491 81.714)" fill="#42a4e5"/>
      <path id="Icon_awesome-globe-2" data-name="Icon awesome-globe" d="M18.059,8.72C17.281,3.927,15.445.563,13.309.563S9.338,3.927,8.56,8.72Zm-9.9,5.152a33.639,33.639,0,0,0,.177,3.435h9.945a33.638,33.638,0,0,0,.177-3.435,33.638,33.638,0,0,0-.177-3.435H8.335A33.639,33.639,0,0,0,8.157,13.872ZM25.583,8.72a13.338,13.338,0,0,0-8.479-7.6,18.113,18.113,0,0,1,2.683,7.6ZM9.51,1.121a13.329,13.329,0,0,0-8.474,7.6h5.8a18.04,18.04,0,0,1,2.678-7.6Zm16.648,9.317H20c.113,1.127.177,2.281.177,3.435S20.114,16.18,20,17.307h6.15a13.2,13.2,0,0,0,.462-3.435A13.425,13.425,0,0,0,26.157,10.437ZM6.44,13.872c0-1.154.064-2.308.177-3.435H.462a13.011,13.011,0,0,0,0,6.869h6.15C6.5,16.18,6.44,15.026,6.44,13.872Zm2.12,5.152c.778,4.792,2.614,8.157,4.75,8.157s3.971-3.365,4.75-8.157Zm8.549,7.6a13.35,13.35,0,0,0,8.479-7.6h-5.8a18.113,18.113,0,0,1-2.683,7.6Zm-16.073-7.6a13.338,13.338,0,0,0,8.479,7.6,18.113,18.113,0,0,1-2.683-7.6h-5.8Z" transform="translate(15.491 13.087)" fill="#42a4e5"/>
      <path id="Icon_ionic-md-person-2" data-name="Icon ionic-md-person" d="M18.032,18.032a6.766,6.766,0,1,0-6.766-6.766A6.786,6.786,0,0,0,18.032,18.032Zm0,3.383C13.549,21.415,4.5,23.7,4.5,28.18v3.383H31.563V28.18C31.563,23.7,22.514,21.415,18.032,21.415Z" transform="translate(10.991 155.269)" fill="#42a4e5"/>
      <path id="Icon_material-cloud-circle-2" data-name="Icon material-cloud-circle" d="M18.035,3A15.035,15.035,0,1,0,33.07,18.035,15.041,15.041,0,0,0,18.035,3ZM24.8,24.049H12.021a4.511,4.511,0,1,1,0-9.021l.21.015a6,6,0,0,1,11.818,1.488H24.8a3.759,3.759,0,1,1,0,7.518Z" transform="translate(11.493 226.432)" fill="#42a4e5"/>
      <path id="Icon_awesome-database-2" data-name="Icon awesome-database" d="M26.762,4.369V7.1c0,2.407-5.994,4.369-13.381,4.369S0,9.507,0,7.1V4.369C0,1.963,5.994,0,13.381,0S26.762,1.963,26.762,4.369Zm0,6.144v6.144c0,2.407-5.994,4.369-13.381,4.369S0,19.065,0,16.658V10.514c2.875,1.98,8.137,2.9,13.381,2.9S23.888,12.494,26.762,10.514Zm0,9.558v6.144c0,2.407-5.994,4.369-13.381,4.369S0,28.623,0,26.216V20.072c2.875,1.98,8.137,2.9,13.381,2.9S23.888,22.052,26.762,20.072Z" transform="translate(15.491 308.359)" fill="#42a4e5"/>
      <path id="Icon_material-laptop-2" data-name="Icon material-laptop" d="M30.07,27.049a3.016,3.016,0,0,0,3.007-3.007V9.007A3.016,3.016,0,0,0,30.07,6H6.014A3.016,3.016,0,0,0,3.007,9.007V24.042a3.016,3.016,0,0,0,3.007,3.007H0v3.007H36.084V27.049ZM6.014,9.007H30.07V24.042H6.014Z" transform="translate(11.493 381.801)" fill="#42a4e5"/>
      <path id="Icon_awesome-envelope-open-text-2" data-name="Icon awesome-envelope-open-text" d="M9.51,11.671h8.645a.864.864,0,0,0,.865-.865V9.942a.864.864,0,0,0-.865-.865H9.51a.864.864,0,0,0-.865.865v.865A.864.864,0,0,0,9.51,11.671Zm-.865,4.323a.864.864,0,0,0,.865.865h8.645a.864.864,0,0,0,.865-.865v-.865a.864.864,0,0,0-.865-.865H9.51a.864.864,0,0,0-.865.865Zm5.187,6.545a4.316,4.316,0,0,1-2.532-.821L0,13.555V25.071a2.594,2.594,0,0,0,2.594,2.594H25.071a2.594,2.594,0,0,0,2.594-2.594V13.555l-11.3,8.163A4.32,4.32,0,0,1,13.832,22.538ZM26.671,8.8c-.478-.375-.932-.728-1.6-1.232V5.187a2.594,2.594,0,0,0-2.594-2.594h-4.19L17.8,2.239C16.891,1.576,15.086-.019,13.832,0c-1.254-.019-3.058,1.576-3.967,2.239l-.488.354H5.187A2.594,2.594,0,0,0,2.594,5.187V7.572c-.668.5-1.122.857-1.6,1.232A2.593,2.593,0,0,0,0,10.845v.575l5.187,3.747V5.187h17.29v9.981l5.187-3.747v-.575A2.593,2.593,0,0,0,26.671,8.8Z" transform="translate(15.491 458.166)" fill="#42a4e5"/>
    </g>
    <g id="windows-svgrepo-com" transform="translate(439 524)">
      <circle id="Ellipse_107" data-name="Ellipse 107" cx="15.5" cy="15.5" r="15.5" fill="#2995cc"/>
      <g id="Group_1371" data-name="Group 1371" transform="translate(7.266 6.51)">
        <path id="Path_844" data-name="Path 844" d="M126.781,136.615v-7.083c-2.422.383-4.392.764-6.781,1.147V136.7C122.389,136.673,124.359,136.643,126.781,136.615Z" transform="translate(-120 -128.199)" fill="#f5f5f5"/>
        <path id="Path_845" data-name="Path 845" d="M248,115.922c2.422-.029,5.361-.057,7.75-.086V107.52c-2.389.383-5.328.764-7.75,1.147Z" transform="translate(-240.25 -107.52)" fill="#f5f5f5"/>
        <path id="Path_846" data-name="Path 846" d="M249.593,265.72q0,3.627,0,7.254c2.389.383,5.263.764,7.653,1.147v-8.316C254.857,265.777,251.983,265.749,249.593,265.72Z" transform="translate(-241.746 -256.141)" fill="#f5f5f5"/>
        <path id="Path_847" data-name="Path 847" d="M126.781,264.15c-2.422-.029-4.392-.057-6.781-.086v6.022c2.389.383,4.359.764,6.781,1.147Z" transform="translate(-120 -254.586)" fill="#f5f5f5"/>
      </g>
    </g>
    <g id="linux-logo" transform="translate(485.422 523.999)">
      <g id="Group_1372" data-name="Group 1372" transform="translate(38.578 0.001)">
        <path id="Path_848" data-name="Path 848" d="M63.849,25.12a2.18,2.18,0,0,0-.519-.41c-.034-.022-.126-.075-.276-.158s-.27-.156-.36-.218a2.56,2.56,0,0,1-.352-.318A1.948,1.948,0,0,1,62,23.538a3.818,3.818,0,0,1-.243-.678,4.077,4.077,0,0,1-.134-.946,1.094,1.094,0,0,0-.259.8,2.679,2.679,0,0,0,.251,1.213,1.38,1.38,0,0,0,.828.8,4.1,4.1,0,0,1,.862.393.96.96,0,0,1,.419.477q.092.269-.31.578a4.654,4.654,0,0,1-1.289.612,11.016,11.016,0,0,0-1.733.711,12.2,12.2,0,0,0-1.5,1.113,2.422,2.422,0,0,1-1.423.595,1.377,1.377,0,0,1-1.222-.552,2.113,2.113,0,0,1-.3-1.682,8.03,8.03,0,0,0-.016-3.264,3.326,3.326,0,0,1-.117-1.624q.15-.7.469-.82t.686.5c.022.056.072.165.15.326a2.2,2.2,0,0,0,.193.343,3.169,3.169,0,0,0,.226.26.836.836,0,0,0,.377.226,2.316,2.316,0,0,0,.527.083,1.948,1.948,0,0,0,1.021-.234,2.056,2.056,0,0,0,.678-.561q.226-.31.452-.594a.8.8,0,0,1,.393-.318q.184-.033.335-.368a2.93,2.93,0,0,0,.2-.929,5.863,5.863,0,0,0-.083-1.414,14.5,14.5,0,0,0-1-3.2,9.419,9.419,0,0,0-1.666-2.729,9.253,9.253,0,0,1-2.226-3.649,10.812,10.812,0,0,1-.5-3.582,5.249,5.249,0,0,0-.494-2.469A4.847,4.847,0,0,0,54.024.923a4.393,4.393,0,0,0-1.49-.695A6.249,6.249,0,0,0,50.759,0a3.678,3.678,0,0,0-1.741.352A3.713,3.713,0,0,0,47.244,2.1a6.162,6.162,0,0,0-.4,2.536q.067,3.315.268,5.189a12.9,12.9,0,0,1-2.076,3.264,4.116,4.116,0,0,0-.653.9,9.452,9.452,0,0,0-.5,1.021q-.184.452-.494,1.306t-.444,1.205a4.356,4.356,0,0,1-.368.7,4.756,4.756,0,0,0-.4.786,2.63,2.63,0,0,0-.167.87,2.8,2.8,0,0,0,.034.636q.067.4.251.251.754-.569,1.892.67A35.471,35.471,0,0,1,47.01,25.5q.167.284.335.611a4.676,4.676,0,0,1,.318.87,3.044,3.044,0,0,1,.126.98,1.238,1.238,0,0,1-.385.8,1.815,1.815,0,0,1-1.08.469,2.777,2.777,0,0,1-.929-.067q-.544-.117-1.381-.385t-1.239-.368q-.586-.134-1.666-.343t-1.415-.31q-.569-.15-.619-.435a1.473,1.473,0,0,1,.234-.8,2.193,2.193,0,0,0,.285-.82,1.364,1.364,0,0,0-.017-.368,1.432,1.432,0,0,0-.075-.285q-.042-.1-.142-.3a2.593,2.593,0,0,1-.134-.3q-.3-.7-.084-.954.15-.218.72-.167a2.172,2.172,0,0,0,1.389-.251,1.412,1.412,0,0,0,.536-1.775,1.484,1.484,0,0,1-.2.854,2.314,2.314,0,0,1-.7.586,2.363,2.363,0,0,1-1,.2,1.689,1.689,0,0,0-.954.234.6.6,0,0,0-.176.452,2.115,2.115,0,0,0,.075.611q.084.31.167.711a2.6,2.6,0,0,1,.067.67,4.994,4.994,0,0,1-.3.912,1.525,1.525,0,0,0-.117,1.113.82.82,0,0,0,.285.327,1.836,1.836,0,0,0,.561.243q.36.1.661.159t.837.15q.536.092.854.159a17.259,17.259,0,0,1,2.444.72,7.618,7.618,0,0,0,1.858.519,1.855,1.855,0,0,0,.9-.193,3.218,3.218,0,0,0,.728-.477,3.031,3.031,0,0,1,.9-.5,3.843,3.843,0,0,1,1.331-.251q.335-.017.971-.042t.954-.025q1.44,0,2.176.017a1.937,1.937,0,0,1,.787.159.745.745,0,0,1,.368.326,2.15,2.15,0,0,0,.277.427,1.439,1.439,0,0,0,.493.393,2.959,2.959,0,0,0,1.49.243,1.922,1.922,0,0,0,1.138-.326,16.266,16.266,0,0,1,1.264-1.071,8.862,8.862,0,0,1,1.431-.937q.134-.067.452-.218t.535-.26q.218-.109.527-.276a4.31,4.31,0,0,0,.5-.31,4.842,4.842,0,0,0,.393-.326.882.882,0,0,0,.26-.368.966.966,0,0,0,.042-.377A.722.722,0,0,0,63.849,25.12ZM54.877,8.941c.033-.022.056-.031.067-.025a.341.341,0,0,1,.067.067l.092.109c.028.033.067.078.117.134a.7.7,0,0,0,.159.134.633.633,0,0,0,.243.092.5.5,0,0,1,.218.084.334.334,0,0,1,.109.193.463.463,0,0,1-.058.335.242.242,0,0,1-.243.134,1.281,1.281,0,0,1-.653-.527Q54.643,9.208,54.877,8.941ZM52.8,2.437a.537.537,0,0,0,.1-.176.381.381,0,0,0,.008-.209.366.366,0,0,1,.017-.218.21.21,0,0,1,.193-.126.688.688,0,0,1,.4.251c.033.022.086.056.158.1a.638.638,0,0,1,.151.117.145.145,0,0,1,.042.084.21.21,0,0,1-.15.117.915.915,0,0,1-.251.034.339.339,0,0,0-.151.017.84.84,0,0,0-.251.151q-.117.1-.184.151a.1.1,0,0,1-.134,0q-.067-.1-.05-.142A.847.847,0,0,1,52.8,2.437Zm-8.1,12.53a1.648,1.648,0,0,0,.167-.218,1,1,0,0,0,.092-.226,1.359,1.359,0,0,1,.075-.209.081.081,0,0,1,.1-.05c.022-.006.039.006.05.033l.017.042v.05a.362.362,0,0,1-.008.067.3.3,0,0,1-.025.075.51.51,0,0,0-.033.1c-.011.045-.022.084-.034.117a.84.84,0,0,1-.209.3q-.142.134-.209.117C44.615,15.146,44.621,15.079,44.7,14.967ZM55.646,25.3A12.241,12.241,0,0,1,55.42,26.8q-.193.971-.243,1.289-.352-.017-.4-.26a1.152,1.152,0,0,1,.1-.628,7.007,7.007,0,0,0,.385-1.54q.034-.77-.167-.87-.185-.134-.569.5a3.73,3.73,0,0,1-2.963,1.457q-2.008.268-2.779-.6a.321.321,0,0,0-.335-.042.475.475,0,0,0-.218.158c-.011.023,0,.056.034.1s.086.112.159.2a1.467,1.467,0,0,1,.176.268q.653,1.138-.117,1.54a4.545,4.545,0,0,0-.117-1.18,3.056,3.056,0,0,0-.469-.9,7.679,7.679,0,0,1-.485-.745,1.049,1.049,0,0,0,1-1.1.921.921,0,0,0-.293-.636q-.151-.15-1.557-1.281a17.372,17.372,0,0,1-1.741-1.515q-.067-.067-.4-.335A1.358,1.358,0,0,1,44,20.206a3.032,3.032,0,0,1-.167-2.778l.067-.084q.084-.017.017.3a3.328,3.328,0,0,0-.067.937,2.312,2.312,0,0,0,.6,1.573q.352.352.486-.05a2.481,2.481,0,0,0,.092-.988q-.008-.853.025-1.155a8.648,8.648,0,0,1,.8-2.36q.661-1.406,1.046-1.507a1.425,1.425,0,0,1-.192-1.055,2.927,2.927,0,0,1,.352-.971q.242-.4.494-.929A2.239,2.239,0,0,0,47.8,10.2a.587.587,0,0,1,.017-.167q.05-.151.418.368a4.178,4.178,0,0,0,1.055,1.222.858.858,0,0,0,.82-.017,6.93,6.93,0,0,0,1.113-.72,7.523,7.523,0,0,1,1.13-.736,1.2,1.2,0,0,0,.159-.075c.072-.039.128-.067.167-.084s.089-.042.151-.075.108-.061.142-.084a1.177,1.177,0,0,0,.1-.075.227.227,0,0,0,.067-.084.2.2,0,0,0,.017-.075.221.221,0,0,0-.142-.184.453.453,0,0,0-.293.042,3.9,3.9,0,0,0-.41.2q-.226.126-.5.285t-.561.293a4.818,4.818,0,0,1-.6.234,2.5,2.5,0,0,1-.6.117,1.533,1.533,0,0,1-1.121-.368,1.253,1.253,0,0,1-.285-.318q-.017-.067.151-.033a4.51,4.51,0,0,0,1.323.033,5.162,5.162,0,0,0,1.172-.385q.151-.067.762-.326a9.976,9.976,0,0,1,.946-.36.456.456,0,0,0,.277-.159.24.24,0,0,0,.05-.2.232.232,0,0,0-.109-.142q-.185-.1-.335.134a.842.842,0,0,1-.352.293,3.252,3.252,0,0,1-.494.218q-.226.075-.578.176t-.385.117a5.068,5.068,0,0,1-1.707.251,1.817,1.817,0,0,1-.594-.109.656.656,0,0,1-.31-.218,2.541,2.541,0,0,0-.268-.318,1.845,1.845,0,0,0-.419-.327.247.247,0,0,1-.126-.3.952.952,0,0,1,.259-.452q.017-.017.343-.209a1.4,1.4,0,0,0,.461-.393,1.839,1.839,0,0,1,.519-.486,2.519,2.519,0,0,0,.025-.368,1.436,1.436,0,0,0-.159-.653.508.508,0,0,0-.452-.352.6.6,0,0,0-.569.234,1.006,1.006,0,0,0-.151.619,1.223,1.223,0,0,0,.159.561q.142.243.26.243.184-.017.117.134a.453.453,0,0,1-.268.234q-.118.033-.26-.226A2.231,2.231,0,0,1,47.7,6.5a2.383,2.383,0,0,1-.059-.62,2.532,2.532,0,0,1,.276-1,.723.723,0,0,1,.695-.461.89.89,0,0,1,.753.569A3.2,3.2,0,0,1,49.637,6.5q.05.117.26.084a2.477,2.477,0,0,1,.552-.008.761.761,0,0,1,.494.176.715.715,0,0,0,.017-.251q-.3-2.109,1.49-2.243a2.366,2.366,0,0,1,.451.126,1.526,1.526,0,0,1,.393.251,1.328,1.328,0,0,1,.352.511,3.737,3.737,0,0,1,.226.837V6.6q0,.536-.218.6-.351.117-.5-.008t.033-.444a1.251,1.251,0,0,0-.067-.971.775.775,0,0,0-.854-.5.656.656,0,0,0-.6.452,1.658,1.658,0,0,0-.134.854q.05.418.184.435a3.612,3.612,0,0,1,.594.268,3.3,3.3,0,0,0,.745.3q.653.134.745.418a1.463,1.463,0,0,1-.075.829,1.735,1.735,0,0,0,.151,1.565,4.623,4.623,0,0,0,.393.553,3.99,3.99,0,0,1,.494.937,10.8,10.8,0,0,1,.518,1.724l.125.117a1.687,1.687,0,0,1,.218.251q.109.151.26.41a4.653,4.653,0,0,1,.327.762,11.089,11.089,0,0,1,.326,1.155,8.041,8.041,0,0,1,.193,1.791,5.279,5.279,0,0,0,.134,1.4q.126.377.644.31a.855.855,0,0,0,.837-.7,6.3,6.3,0,0,0-.9-4.654,4.844,4.844,0,0,0-.954-1.389,3.954,3.954,0,0,1,1.206,1.256,4.971,4.971,0,0,1,.787,1.724q.016.084.092.444t.083.419c.005.039.028.154.067.343a2.413,2.413,0,0,1,.059.368c0,.056.005.165.017.326a1.553,1.553,0,0,1-.008.377c-.017.089-.033.209-.05.36a2.741,2.741,0,0,1-.084.435q-.058.209-.125.46.92.4.921.7a2.021,2.021,0,0,0-1-.376,2.078,2.078,0,0,0-1.214.176.946.946,0,0,0-.578.887,1.055,1.055,0,0,0-.854.3,1.835,1.835,0,0,0-.385,1.18,8.936,8.936,0,0,0,.125,1.623A5.622,5.622,0,0,1,55.646,25.3Zm-7.014-19.4a.156.156,0,0,1-.084-.1c0-.1.05-.14.151-.117q.1.033.193.251a.878.878,0,0,1,.042.5.044.044,0,0,1-.05.05q-.184,0-.134-.335Q48.8,5.894,48.632,5.894Zm4.336.268-.033.05c-.089.056-.133.067-.133.034q-.067-.452-.3-.519l-.067-.033q-.117-.1.117-.117.05-.017.151.05a.66.66,0,0,1,.268.536Z" transform="translate(-38.578 -0.001)"/>
        <path id="Path_849" data-name="Path 849" d="M217.484,117.6c0,.067.028.095.084.084s.092-.053.142-.159a.3.3,0,0,1,.259-.176H217.8Q217.484,117.4,217.484,117.6Z" transform="translate(-206.994 -110.469)"/>
        <path id="Path_850" data-name="Path 850" d="M242.326,116.853a.276.276,0,0,1,.293.075c.084.084.148.12.193.109a.1.1,0,0,0,.05-.151Q242.728,116.669,242.326,116.853Z" transform="translate(-230.38 -109.923)"/>
      </g>
    </g>
    <g id="Group_1373" data-name="Group 1373" transform="translate(-33.51 226.288)">
      <path id="Path_851" data-name="Path 851" d="M648.99,330.887a25.114,25.114,0,0,1-11.977-2.421l.755-1.2a24.372,24.372,0,0,0,11.221,2.083c0,.13.156-2.448.391-3.853h-5.441a34.588,34.588,0,0,1,4.843-15.023H632.509v24.786h17.105a35.711,35.711,0,0,1-.625-4.374Z" transform="translate(0 -10.389)" fill="#b9e6fb" fill-rule="evenodd"/>
      <path id="Path_852" data-name="Path 852" d="M682.292,329.247a17.07,17.07,0,0,0,7.16-2.083l.937,1.2a20.409,20.409,0,0,1-8.1,2.421,21.673,21.673,0,0,0,.7,4.478h11.716V310.475H682.239a30.857,30.857,0,0,0-4.738,13.382h5.6a24.542,24.542,0,0,0-.807,5.389Z" transform="translate(-31.662 -10.389)" fill="#00a1ed" fill-rule="evenodd"/>
      <path id="Path_853" data-name="Path 853" d="M657.465,323.129h1.588V326.8h-1.588v-3.671Z" transform="translate(-17.562 -19.294)" fill="#00a1ed" fill-rule="evenodd"/>
      <path id="Path_854" data-name="Path 854" d="M702.106,323.129h1.588V326.8h-1.588v-3.671Z" transform="translate(-48.977 -19.294)" fill="#1a1818" fill-rule="evenodd"/>
      <path id="Path_855" data-name="Path 855" d="M677.777,318.858a17.069,17.069,0,0,0,7.16-2.083l.937,1.2a20.409,20.409,0,0,1-8.1,2.421,19.588,19.588,0,0,0,2.161,8.123l-1.354.729c-2.473-3.905-2.916-9.165-2.057-14.137h-5.441a34.307,34.307,0,0,1,7.967-19.4l1.171,1.015a30.485,30.485,0,0,0-7.238,16.741h5.6a24.538,24.538,0,0,0-.807,5.389Z" transform="translate(-27.147)" fill="#1a1818" fill-rule="evenodd"/>
      <path id="Path_856" data-name="Path 856" d="M659.688,369.238v1.536a25.113,25.113,0,0,1-11.977-2.421l.755-1.2a24.372,24.372,0,0,0,11.221,2.083Z" transform="translate(-10.698 -50.276)" fill="#00a1ed" fill-rule="evenodd"/>
    </g>
    <g id="Group_1374" data-name="Group 1374" transform="translate(1750.18 423.102)">
      <path id="Path_857" data-name="Path 857" d="M-914.962,415.925a1.586,1.586,0,0,0-.6-.134,3.678,3.678,0,0,1-2.992-2.781,8.872,8.872,0,0,1,.187-5.655,4.23,4.23,0,0,1,3.643-2.79,6.1,6.1,0,0,1,2.708.185,3.47,3.47,0,0,1,2.328,2.185,8.335,8.335,0,0,1-.275,6.63,4.134,4.134,0,0,1-3.195,2.252c-.124.022-.266,0-.365.108Zm3.405-5.585a9.852,9.852,0,0,0-.183-2,2.825,2.825,0,0,0-.772-1.573,2.331,2.331,0,0,0-3.565.74,5.356,5.356,0,0,0-.414,1.929,8.691,8.691,0,0,0,.353,3.3,1.961,1.961,0,0,0,2.007,1.42,2.081,2.081,0,0,0,2.16-1.3A6.21,6.21,0,0,0-911.557,410.339Z" transform="translate(-143.475 -285.145)" fill="#48718c"/>
      <path id="Path_858" data-name="Path 858" d="M-605.642,416.433a1.667,1.667,0,0,0-.6-.15,2.664,2.664,0,0,1-2.112-2.615,3.385,3.385,0,0,1,2.528-3.634,10.393,10.393,0,0,1,3.411-.435c.467,0,.4.023.4-.4a6.324,6.324,0,0,0-.046-1.063,1.49,1.49,0,0,0-1.142-1.269,5.142,5.142,0,0,0-2.172-.04,9.927,9.927,0,0,0-1.892.49c-.153.054-.212.034-.247-.135-.072-.357-.17-.708-.256-1.062-.024-.1-.027-.184.095-.233a9.085,9.085,0,0,1,5.625-.65,2.825,2.825,0,0,1,2.323,2.96c.028,2.594.007,5.188.013,7.782,0,.182-.064.229-.234.226-.451-.009-.9-.014-1.355,0-.206.007-.266-.082-.288-.261-.033-.275-.08-.548-.127-.866-.169.124-.307.222-.44.324a4.853,4.853,0,0,1-2.192.964c-.052.009-.12-.01-.143.065Zm3.632-4.046c0-.355-.007-.711,0-1.066,0-.165-.028-.239-.217-.238a11.819,11.819,0,0,0-2.009.111c-1.243.219-1.915.748-1.82,2.056a1.458,1.458,0,0,0,1.506,1.454,3.625,3.625,0,0,0,2.157-.762.713.713,0,0,0,.386-.75A5.987,5.987,0,0,1-602.01,412.387Z" transform="translate(-436.132 -285.654)" fill="#48718c"/>
      <path id="Path_859" data-name="Path 859" d="M-1071.179,415.455a2.132,2.132,0,0,0,.174-.768c.04-.212.1-.282.332-.222a8.694,8.694,0,0,0,2.614.351,2.906,2.906,0,0,0,1.221-.294,1.312,1.312,0,0,0,.194-2.213,6.148,6.148,0,0,0-1.594-.79,7.8,7.8,0,0,1-1.859-.964,2.885,2.885,0,0,1-.726-3.567,3.2,3.2,0,0,1,2.471-1.73,5.85,5.85,0,0,1,3.594.47c.2.092.3.185.217.428a4.151,4.151,0,0,0-.173.755c-.029.193-.112.206-.275.159a6.361,6.361,0,0,0-2.1-.266,1.933,1.933,0,0,0-1.228.421,1.219,1.219,0,0,0-.075,1.729,2.871,2.871,0,0,0,.925.572c.68.3,1.409.492,2.062.862a3.033,3.033,0,0,1,1.64,1.972,3.21,3.21,0,0,1-2.291,3.864,6.52,6.52,0,0,1-4.882-.441c-.077-.037-.158-.065-.237-.1Z" transform="translate(0 -285.771)" fill="#48718c"/>
      <path id="Path_860" data-name="Path 860" d="M-430.591,101.9c-.086.148.067.149.127.179a4.948,4.948,0,0,1,1.495,1.193,2.988,2.988,0,0,1,.685,2.025,10.41,10.41,0,0,0,.067,1.723,3.463,3.463,0,0,0,.863,1.845,1.706,1.706,0,0,1,.168.274c-.449-.032-.87-.061-1.292-.092a8.55,8.55,0,0,0-2.119.1.234.234,0,0,1-.288-.163,2.465,2.465,0,0,1-.085-2.062,10.69,10.69,0,0,1,.86-1.622,2.285,2.285,0,0,0,.215-2.3,2.361,2.361,0,0,0-.363-.514c-.166-.2-.336-.39-.5-.584Z" transform="translate(-603.112 0)" fill="#d77030"/>
      <path id="Path_861" data-name="Path 861" d="M-63.427,410.545c-.287-.016-.225-.236-.235-.431-.124.1-.073.275-.169.352-.161.129-.225-.007-.26-.155-.117.042-.069.266-.239.192-.118-.052-.061-.168-.065-.255-.008-.191,0-.383,0-.574,0-.075-.009-.162.1-.168.095,0,.194-.022.23.109s.081.254.13.406c.182-.179.081-.621.508-.514Z" transform="translate(-948.713 -289.854)" fill="#48718c"/>
      <path id="Path_862" data-name="Path 862" d="M-191.964,416.6a6.313,6.313,0,0,1-2.892-.7c-.188-.089-.286-.178-.213-.414a4.343,4.343,0,0,0,.132-.763c.021-.175.076-.215.259-.172a9.649,9.649,0,0,0,2.614.361,3.362,3.362,0,0,0,1.226-.267,1.329,1.329,0,0,0,.215-2.284,7.632,7.632,0,0,0-1.526-.736,9.457,9.457,0,0,1-1.7-.832,2.952,2.952,0,0,1-.487-4.352,3.693,3.693,0,0,1,2.361-1.137,5.813,5.813,0,0,1,3.332.549c.163.081.231.156.175.347a5.813,5.813,0,0,0-.168.787c-.029.194-.1.231-.287.175a6.405,6.405,0,0,0-2.161-.261,1.921,1.921,0,0,0-1.043.312,1.2,1.2,0,0,0-.075,1.948,4.016,4.016,0,0,0,1.194.623,11.969,11.969,0,0,1,2.039.928,3.1,3.1,0,0,1-.033,5.151A5.218,5.218,0,0,1-191.964,416.6Z" transform="translate(-825.561 -285.869)" fill="#48718c"/>
      <path id="Path_863" data-name="Path 863" d="M-403.824,407.2a8.686,8.686,0,0,1,1.48-1.544,2.012,2.012,0,0,1,1.961-.29c.162.058.238.1.21.34-.065.548-.166,1.092-.2,1.643-.012.191-.1.2-.239.151a1.77,1.77,0,0,0-1.923.476c-.352.343-.666.716-.987,1.085a.632.632,0,0,0-.095.466c0,2.17-.008,4.339.006,6.509,0,.3-.077.373-.366.36-.575-.024-1.152-.016-1.728,0-.195,0-.242-.06-.242-.245q.006-5.242,0-10.484c0-.165.03-.241.219-.237q.748.018,1.5,0c.183,0,.22.068.235.231C-403.951,406.152-403.887,406.643-403.824,407.2Z" transform="translate(-626.868 -285.841)" fill="#48718c"/>
      <path id="Path_864" data-name="Path 864" d="M-714.447,411.9c0-1.508,0-3.016-.006-4.523,0-.241.065-.309.306-.3.576.019,1.153.017,1.729,0,.234-.006.286.076.285.3-.007,2.641,0,5.282-.005,7.923a4.079,4.079,0,0,0,.066.83.545.545,0,0,0,.574.5,7.488,7.488,0,0,0,1.376-.094c.187-.023.262.025.292.2.049.293.108.584.172.874a.259.259,0,0,1-.211.357,6.157,6.157,0,0,1-1.325.25,6.779,6.779,0,0,1-2.091-.022,1.331,1.331,0,0,1-1.038-1.006,3.419,3.419,0,0,1-.125-.938Q-714.443,414.072-714.447,411.9Z" transform="translate(-336.154 -287.574)" fill="#48718c"/>
      <path id="Path_865" data-name="Path 865" d="M-272.537,414.022c0-1.719.005-3.439-.006-5.158,0-.246.072-.307.307-.3.537.017,1.076.02,1.614,0,.27-.011.354.052.353.34-.012,2.939-.008,5.879-.008,8.818,0,.509-.013,1.019.005,1.527.009.238-.074.288-.3.282-.557-.015-1.115-.016-1.671,0-.233.007-.307-.046-.3-.294C-272.532,417.5-272.537,415.761-272.537,414.022Z" transform="translate(-752.578 -288.979)" fill="#48718c"/>
      <path id="Path_866" data-name="Path 866" d="M-539.552,142.337a12.027,12.027,0,0,0-2.449.848,5.788,5.788,0,0,0-.711.374.318.318,0,0,1-.455-.051,2.393,2.393,0,0,1-.8-2.063c.047-.543.1-1.085.2-1.624a2.314,2.314,0,0,0-.527-2.043,2.865,2.865,0,0,0-.85-.57c-.151-.08-.3-.159-.509-.266a5.265,5.265,0,0,1,2.318.668,2.877,2.877,0,0,1,1.193,1.423,14.767,14.767,0,0,0,.835,1.791,3.846,3.846,0,0,0,1.438,1.327C-539.782,142.2-539.693,142.256-539.552,142.337Z" transform="translate(-495.215 -33.023)" fill="#d77030"/>
      <path id="Path_867" data-name="Path 867" d="M-343.038,123.864c-.532-.253-1-.555-1.509-.764a11.532,11.532,0,0,0-1.6-.545.347.347,0,0,1-.308-.371,2.406,2.406,0,0,1,.669-1.865,8.826,8.826,0,0,1,1.336-1.133,2.246,2.246,0,0,0,.948-2.8c-.071-.178-.125-.362-.194-.564a3.607,3.607,0,0,1,.9,4.284,4.851,4.851,0,0,0-.55,1.979,3.545,3.545,0,0,0,.225,1.463A2.561,2.561,0,0,1-343.038,123.864Z" transform="translate(-682.924 -13.125)" fill="#d77030"/>
      <path id="Path_868" data-name="Path 868" d="M-218.188,274.94c-.132-.371-.246-.7-.367-1.026a10.729,10.729,0,0,0-.994-2.008.379.379,0,0,1,.047-.514,2.407,2.407,0,0,1,1.84-.874,10.232,10.232,0,0,1,1.693.086,2.3,2.3,0,0,0,2.226-.71,3.038,3.038,0,0,0,.439-.771,3.829,3.829,0,0,1,.2-.413,4.553,4.553,0,0,1-.543,2.222,2.985,2.985,0,0,1-1.456,1.33,11,11,0,0,0-1.688.863,3.867,3.867,0,0,0-1.321,1.669C-218.124,274.828-218.144,274.859-218.188,274.94Z" transform="translate(-802.442 -157.193)" fill="#d77030"/>
      <path id="Path_869" data-name="Path 869" d="M-705.211,304.117a3.679,3.679,0,0,1,4.044-.8,5.568,5.568,0,0,0,2.329.78,3.937,3.937,0,0,0,1.6-.219c-.266.488-.5.9-.722,1.331a8.9,8.9,0,0,0-.682,1.706.3.3,0,0,1-.32.256,2.366,2.366,0,0,1-1.761-.651,7.1,7.1,0,0,1-1.135-1.4,2.476,2.476,0,0,0-1.743-1.288,2.085,2.085,0,0,0-.824.047C-704.684,303.943-704.938,304.034-705.211,304.117Z" transform="translate(-344.863 -189.503)" fill="#d77030"/>
      <path id="Path_870" data-name="Path 870" d="M-268.93,175.334a3.556,3.556,0,0,1-.632,4.125,6.737,6.737,0,0,0-1.225,1.479,3.574,3.574,0,0,0-.51,1.8.132.132,0,0,1-.064.137c-.241-.277-.482-.56-.73-.835a10.2,10.2,0,0,0-1.622-1.46.342.342,0,0,1-.141-.46,2.628,2.628,0,0,1,1.807-1.634c.41-.133.819-.266,1.237-.375a2.257,2.257,0,0,0,1.741-1.475A5.035,5.035,0,0,0-268.93,175.334Z" transform="translate(-751.309 -69.201)" fill="#d77030"/>
      <path id="Path_871" data-name="Path 871" d="M-640.4,209.717a3.522,3.522,0,0,1,4.2,1,4.4,4.4,0,0,0,2.253,1.574c.285.076.581.114.9.175a4.828,4.828,0,0,1-.662.549,11.8,11.8,0,0,0-1.726,1.729.337.337,0,0,1-.467.109,2.513,2.513,0,0,1-1.443-1.589,12.237,12.237,0,0,1-.411-1.586,2.269,2.269,0,0,0-2.165-1.927Z" transform="translate(-405.934 -101.336)" fill="#d77030"/>
      <path id="Path_872" data-name="Path 872" d="M-77.218,409.693a2.229,2.229,0,0,1,.23,0c.139.015.127.158.064.173-.3.071-.153.3-.194.46-.032.124.1.35-.1.356-.247.008-.087-.233-.124-.358-.047-.159.107-.391-.2-.456-.061-.013-.075-.159.062-.176a2.119,2.119,0,0,1,.259,0Z" transform="translate(-936.295 -290.04)" fill="#48718c"/>
    </g>
    <g id="rack-server-outline-badged" transform="translate(999 524)">
      <path id="Path_873" data-name="Path 873" d="M6,9H7.859v1.859H6Z" transform="translate(-0.282 -0.565)" fill="#929da7"/>
      <path id="Path_874" data-name="Path 874" d="M6,17H7.859v1.859H6Z" transform="translate(-0.282 -1.13)" fill="#929da7"/>
      <path id="Path_875" data-name="Path 875" d="M10,17H23.011v1.859H10Z" transform="translate(-0.565 -1.13)" fill="#929da7"/>
      <path id="Path_876" data-name="Path 876" d="M6,25H7.859v1.859H6Z" transform="translate(-0.282 -1.695)" fill="#929da7"/>
      <path id="Path_877" data-name="Path 877" d="M10,25H23.011v1.859H10Z" transform="translate(-0.565 -1.695)" fill="#929da7"/>
      <path id="Path_878" data-name="Path 878" d="M10,10.859H23.011v-.474A6.952,6.952,0,0,1,22.2,9H10Z" transform="translate(-0.565 -0.565)" fill="#929da7"/>
      <path id="Path_879" data-name="Path 879" d="M28.023,12.9a6.942,6.942,0,0,1-2.491-.465H3.859V6.859H21.117a6.671,6.671,0,0,1,0-1.859H3.859A1.859,1.859,0,0,0,2,6.859V27.305a1.859,1.859,0,0,0,1.859,1.859H29.881a1.859,1.859,0,0,0,1.859-1.859V11.822A6.933,6.933,0,0,1,28.023,12.9ZM3.859,14.294H29.881V19.87H3.859Zm0,13.011V21.729H29.881v5.576Z" transform="translate(0 -0.282)" fill="#929da7"/>
      <path id="Path_880" data-name="Path 880" d="M34.294,5.647A4.647,4.647,0,1,1,29.647,1a4.647,4.647,0,0,1,4.647,4.647Z" transform="translate(-1.624)" fill="#929da7"/>
    </g>
    <g id="Amazon_Web_Services_Logo" transform="translate(868.332 524.9)">
      <path id="Path_881" data-name="Path 881" d="M24.2,10.222a4.227,4.227,0,0,0,.154,1.243,7.477,7.477,0,0,0,.447,1.006.608.608,0,0,1,.1.321.553.553,0,0,1-.265.419l-.88.587a.67.67,0,0,1-.363.126.643.643,0,0,1-.419-.2,4.321,4.321,0,0,1-.5-.657c-.14-.237-.279-.5-.433-.824a5.16,5.16,0,0,1-4.107,1.928,3.827,3.827,0,0,1-2.794-1.006A3.588,3.588,0,0,1,14.1,10.487a3.6,3.6,0,0,1,1.271-2.878,5.082,5.082,0,0,1,3.422-1.09,11.06,11.06,0,0,1,1.481.112c.517.07,1.048.182,1.606.307V5.919a3.1,3.1,0,0,0-.657-2.235,3.215,3.215,0,0,0-2.277-.643,6.356,6.356,0,0,0-1.509.182A11.13,11.13,0,0,0,15.93,3.7a4.008,4.008,0,0,1-.489.182.857.857,0,0,1-.223.042c-.2,0-.293-.14-.293-.433V2.8a.884.884,0,0,1,.1-.489,1.046,1.046,0,0,1,.391-.293,8.042,8.042,0,0,1,1.76-.629,8.469,8.469,0,0,1,2.179-.265,5.1,5.1,0,0,1,3.66,1.131A4.623,4.623,0,0,1,24.171,5.7v4.526Zm-5.671,2.123a4.527,4.527,0,0,0,1.439-.251,3.113,3.113,0,0,0,1.327-.894,2.217,2.217,0,0,0,.475-.894,5.015,5.015,0,0,0,.14-1.215V8.5a11.665,11.665,0,0,0-1.285-.237,10.526,10.526,0,0,0-1.313-.084,3.22,3.22,0,0,0-2.081.559,1.947,1.947,0,0,0-.684,1.606,1.8,1.8,0,0,0,1.984,2Zm11.217,1.509a.78.78,0,0,1-.531-.14,1.139,1.139,0,0,1-.293-.545l-3.283-10.8a2.447,2.447,0,0,1-.126-.559.306.306,0,0,1,.335-.349h1.369a.774.774,0,0,1,.545.14,1.143,1.143,0,0,1,.279.545l2.347,9.247,2.179-9.247a.98.98,0,0,1,.265-.545.961.961,0,0,1,.559-.14h1.118a.841.841,0,0,1,.559.14.941.941,0,0,1,.265.545l2.207,9.359,2.417-9.359a1.2,1.2,0,0,1,.279-.545.911.911,0,0,1,.545-.14h1.3a.311.311,0,0,1,.349.349,1.393,1.393,0,0,1-.028.224,1.988,1.988,0,0,1-.1.349l-3.366,10.8a1.071,1.071,0,0,1-.293.545.894.894,0,0,1-.531.14h-1.2a.841.841,0,0,1-.559-.14.99.99,0,0,1-.265-.559l-2.165-9.01-2.151,9a1.09,1.09,0,0,1-.265.559.866.866,0,0,1-.559.14Zm17.95.377a9.244,9.244,0,0,1-2.151-.251,6.355,6.355,0,0,1-1.606-.559,1.006,1.006,0,0,1-.433-.391.986.986,0,0,1-.084-.391v-.712c0-.293.112-.433.321-.433a.791.791,0,0,1,.251.042c.084.028.21.084.349.14a7.6,7.6,0,0,0,1.537.489,8.389,8.389,0,0,0,1.662.168,3.769,3.769,0,0,0,2.039-.461,1.5,1.5,0,0,0,.726-1.327,1.36,1.36,0,0,0-.377-.978,3.5,3.5,0,0,0-1.411-.726L46.494,8.21a4.261,4.261,0,0,1-2.235-1.425,3.328,3.328,0,0,1-.7-2.025,3.109,3.109,0,0,1,.377-1.551,3.592,3.592,0,0,1,1.006-1.145A4.434,4.434,0,0,1,46.4,1.337a6.088,6.088,0,0,1,1.76-.237,7.012,7.012,0,0,1,.936.056c.321.042.615.1.908.154s.545.14.8.224a3.049,3.049,0,0,1,.587.251,1.208,1.208,0,0,1,.419.349.753.753,0,0,1,.126.461v.657c0,.293-.112.447-.321.447a1.453,1.453,0,0,1-.531-.168,6.39,6.39,0,0,0-2.682-.545,3.605,3.605,0,0,0-1.858.391,1.349,1.349,0,0,0-.657,1.243,1.319,1.319,0,0,0,.419.992,4.173,4.173,0,0,0,1.537.768l1.984.629A4.249,4.249,0,0,1,51.983,8.35a3.161,3.161,0,0,1,.643,1.956,3.591,3.591,0,0,1-.363,1.62,3.757,3.757,0,0,1-1.02,1.229,4.5,4.5,0,0,1-1.551.782A6.642,6.642,0,0,1,47.695,14.231Z" transform="translate(-10.695)" fill="#252f3e"/>
      <g id="Group_1375" data-name="Group 1375" transform="translate(1.668 16.758)">
        <path id="Path_882" data-name="Path 882" d="M39.64,122.573c-4.6,3.394-11.273,5.2-17.014,5.2a30.78,30.78,0,0,1-20.772-7.92c-.433-.391-.042-.922.475-.615a41.254,41.254,0,0,0,36.64,2.277C39.737,121.162,40.394,122.015,39.64,122.573Z" transform="translate(-1.668 -118.312)" fill="#f90" fill-rule="evenodd"/>
        <path id="Path_883" data-name="Path 883" d="M251.744,115.275c-.587-.754-3.883-.363-5.378-.182-.447.056-.517-.335-.112-.629,2.626-1.844,6.942-1.313,7.445-.7s-.14,4.945-2.6,7.012c-.377.321-.74.154-.573-.265C251.087,119.13,252.33,116.015,251.744,115.275Z" transform="translate(-211.858 -113.192)" fill="#f90" fill-rule="evenodd"/>
      </g>
    </g>
    <line id="Line_372" data-name="Line 372" x2="873" transform="translate(245.5 156.5)" fill="none" stroke="#fff" stroke-width="4"/>
    <line id="Line_373" data-name="Line 373" x2="873" transform="translate(245.5 266)" fill="none" stroke="#fff" stroke-width="4"/>
    <line id="Line_374" data-name="Line 374" x2="873" transform="translate(245.5 364)" fill="none" stroke="#fff" stroke-width="4"/>
    <line id="Line_380" data-name="Line 380" x2="703" transform="translate(380.5 426)" fill="none" stroke="#fff" stroke-width="2"/>
    <line id="Line_376" data-name="Line 376" y2="78.617" transform="translate(498 386.383)" fill="none" stroke="#fff" stroke-width="2"/>
    <line id="Line_381" data-name="Line 381" y2="50.5" transform="translate(462 289.5)" fill="none" stroke="#fff" stroke-width="2"/>
    <line id="Line_384" data-name="Line 384" y2="50.5" transform="translate(599.5 83)" fill="none" stroke="#fff" stroke-width="2"/>
    <line id="Line_386" data-name="Line 386" y2="74" transform="translate(606.5 177.5)" fill="none" stroke="#f8f8f8" stroke-width="3"/>
    <line id="Line_387" data-name="Line 387" y2="74" transform="translate(836.5 177.5)" fill="none" stroke="#f8f8f8" stroke-width="3"/>
    <line id="Line_385" data-name="Line 385" y2="50.5" transform="translate(841.5 83)" fill="none" stroke="#fff" stroke-width="2"/>
    <line id="Line_382" data-name="Line 382" y2="50.5" transform="translate(616 289.5)" fill="none" stroke="#fff" stroke-width="2"/>
    <line id="Line_383" data-name="Line 383" y2="51" transform="translate(960 289.5)" fill="none" stroke="#dee0ff" stroke-width="2"/>
    <line id="Line_377" data-name="Line 377" y2="78.617" transform="translate(667 386.383)" fill="none" stroke="#fff" stroke-width="2"/>
    <line id="Line_378" data-name="Line 378" y2="78.617" transform="translate(819 386.383)" fill="none" stroke="#fff" stroke-width="2"/>
    <line id="Line_379" data-name="Line 379" y2="78.617" transform="translate(960 386.383)" fill="none" stroke="#fff" stroke-width="2"/>
    <line id="Line_375" data-name="Line 375" x2="873" transform="translate(245.5 485.5)" fill="none" stroke="#fff" stroke-width="4"/>
    <g id="Rectangle_1483" data-name="Rectangle 1483" transform="translate(841 289)" fill="none" stroke="#dee0ff" stroke-width="1">
      <rect width="257" height="52" rx="4" stroke="none"/>
      <rect x="0.5" y="0.5" width="256" height="51" rx="3.5" fill="none"/>
    </g>
    <path id="Polygon_130" data-name="Polygon 130" d="M11,0,22,12H0Z" transform="translate(359 101) rotate(90)" fill="#e2f1ff"/>
    <path id="Polygon_131" data-name="Polygon 131" d="M11,0,22,12H0Z" transform="translate(359 201) rotate(90)" fill="#b9f5e6"/>
    <path id="Polygon_132" data-name="Polygon 132" d="M11,0,22,12H0Z" transform="translate(862 304) rotate(90)" fill="#dee0ff"/>
    <path id="Polygon_133" data-name="Polygon 133" d="M11,0,22,12H0Z" transform="translate(359 540) rotate(90)" fill="#dbe3eb"/>
    <path id="Polygon_134" data-name="Polygon 134" d="M11,0,22,12H0Z" transform="translate(359 415) rotate(90)" fill="#ffebe2"/>
    <g id="apps" transform="translate(428.738 193.738)">
      <path id="Path_884" data-name="Path 884" d="M7.783,6h7.131A1.783,1.783,0,0,1,16.7,7.783v7.131A1.783,1.783,0,0,1,14.914,16.7H7.783A1.783,1.783,0,0,1,6,14.914V7.783A1.783,1.783,0,0,1,7.783,6Z" fill="none" stroke="#dee0e5" stroke-linecap="round" stroke-linejoin="round" stroke-width="2"/>
      <path id="Path_885" data-name="Path 885" d="M7.783,21h7.131A1.783,1.783,0,0,1,16.7,22.783v7.131A1.783,1.783,0,0,1,14.914,31.7H7.783A1.783,1.783,0,0,1,6,29.914V22.783A1.783,1.783,0,0,1,7.783,21Z" transform="translate(0 2.827)" fill="none" stroke="#dee0e5" stroke-linecap="round" stroke-linejoin="round" stroke-width="2"/>
      <path id="Path_886" data-name="Path 886" d="M22.783,21h7.131A1.783,1.783,0,0,1,31.7,22.783v7.131A1.783,1.783,0,0,1,29.914,31.7H22.783A1.783,1.783,0,0,1,21,29.914V22.783A1.783,1.783,0,0,1,22.783,21Z" transform="translate(2.827 2.827)" fill="none" stroke="#dee0e5" stroke-linecap="round" stroke-linejoin="round" stroke-width="2"/>
      <path id="Path_887" data-name="Path 887" d="M21,10.5H31.7" transform="translate(2.827 0.848)" fill="none" stroke="#dee0e5" stroke-linecap="round" stroke-linejoin="round" stroke-width="2"/>
      <path id="Path_888" data-name="Path 888" d="M25.5,6V16.7" transform="translate(3.675)" fill="none" stroke="#dee0e5" stroke-linecap="round" stroke-linejoin="round" stroke-width="2"/>
    </g>
    <path id="Path_889" data-name="Path 889" d="M-421.338-132.13v-1.26h-10.551v1.277c.871.206,1.742.341,2.563.623a2.08,2.08,0,0,1,1.68,2.408c0,2.089-.033,4.178.015,6.266a1.974,1.974,0,0,1-1.3,2.076,9.739,9.739,0,0,1-7.523.007,1.969,1.969,0,0,1-1.313-2.067c.045-2.12.052-4.244,0-6.364a2.068,2.068,0,0,1,1.5-2.239c.885-.3,1.808-.484,2.762-.732v-1.25h-10.55v1.257c.872.213,1.742.357,2.563.642a2.088,2.088,0,0,1,1.666,2.419c0,2.089-.018,4.178.017,6.266a1.952,1.952,0,0,1-1.231,2.025,9.671,9.671,0,0,1-7.7,0,1.854,1.854,0,0,1-1.191-1.938c.044-2.153.012-4.308.014-6.462a2.033,2.033,0,0,1,1.573-2.281c.824-.285,1.7-.425,2.725-.672,0-.475.028-1.048-.007-1.616-.052-.848.324-1.158,1.16-1.152,3.427.024,6.853.009,10.28.009h.654v-1.392h-2.3q-2.937,0-5.875,0c-3.2,0-5.428-1.888-5.624-4.769-.182-2.681,1.87-4.858,5.064-5.27a5.936,5.936,0,0,1,.462-5.4,5.731,5.731,0,0,1,2.911-2.359c2.787-1.039,5.151-.055,7.41,3.088,4.227-1.391,7.1.361,7.61,4.7.239.012.489.033.739.038a5.008,5.008,0,0,1,5.07,5,5.065,5.065,0,0,1-5.128,4.965c-2.868.019-5.737,0-8.68,0v1.394h3.48q3.574,0,7.148,0c1.405,0,1.472.072,1.466,1.518,0,.418,0,.836,0,1.247.923.216,1.793.353,2.615.629a2.089,2.089,0,0,1,1.68,2.4c0,2.121-.028,4.243.013,6.364a1.866,1.866,0,0,1-1.184,1.945,9.62,9.62,0,0,1-7.7.015,1.933,1.933,0,0,1-1.238-2.015c.044-2.121.057-4.244,0-6.364a2.12,2.12,0,0,1,1.582-2.289C-423.153-131.726-422.258-131.9-421.338-132.13Zm-11.407-5.662v0c3.229,0,6.458.011,9.687-.005a3.294,3.294,0,0,0,3.218-2.135,3.3,3.3,0,0,0-.655-3.722,3.392,3.392,0,0,0-3.756-.927c-1.19.363-1.509.1-1.26-1.1a3.6,3.6,0,0,0-1.557-3.828,3.626,3.626,0,0,0-4.046.139c-.975.683-1.237.592-1.636-.565a4.342,4.342,0,0,0-5.384-2.842,4.335,4.335,0,0,0-2.114,6.888,3.554,3.554,0,0,1,.328,1.11,7.3,7.3,0,0,1-1.219.185c-.481,0-.967-.2-1.441-.169a3.471,3.471,0,0,0-3.256,3.5,3.439,3.439,0,0,0,3.4,3.458C-439.2-137.762-435.975-137.792-432.746-137.792Zm-15.672,13.478a5.37,5.37,0,0,1-.007.894c-.211,1.086.333,1.614,1.326,1.668a22.107,22.107,0,0,0,4.154.025c1.8-.247,1.964-.675,1.472-2.532A11.217,11.217,0,0,1-448.417-124.314Zm7.051-3.707a11.3,11.3,0,0,1-7,.012c-.019.307-.045.562-.048.818-.016,1.393,0,1.518,1.37,1.713a15.047,15.047,0,0,0,3.682.135C-441.291-125.566-441.206-125.772-441.366-128.021Zm5.161.015a6.128,6.128,0,0,1-.051.84c-.225,1.085.319,1.608,1.31,1.688a21.9,21.9,0,0,0,3.778.13c1.961-.184,2.123-.483,1.994-2.469,0-.051-.062-.1-.119-.181A11.212,11.212,0,0,1-436.2-128.006Zm19.114,0a11.324,11.324,0,0,1-7-.019,5.554,5.554,0,0,1-.007.9c-.208,1.109.4,1.581,1.365,1.652a20.9,20.9,0,0,0,3.877.1c1.869-.215,2-.508,1.852-2.393A1.114,1.114,0,0,0-417.091-128Zm-12.161,3.73a11.565,11.565,0,0,1-7-.01,5.374,5.374,0,0,1-.007.882c-.208,1.1.378,1.582,1.355,1.655a22.09,22.09,0,0,0,3.775.114c1.94-.192,2.124-.53,1.936-2.494A.793.793,0,0,0-429.252-124.273Zm5.165-.032a6.108,6.108,0,0,0,.024,1.394c.09.346.319.828.6.924a8.659,8.659,0,0,0,5.831.008,1.406,1.406,0,0,0,.631-.911,6.07,6.07,0,0,0,.026-1.417A11.417,11.417,0,0,1-424.086-124.3Zm-5-5.362c-2.011-1.205-5.644-1.154-7.087.029A9.235,9.235,0,0,0-429.09-129.666Zm-19.39.021a9.438,9.438,0,0,0,7.1.012C-442.956-130.847-446.55-130.873-448.48-129.646Zm24.383-.033a9.142,9.142,0,0,0,7.087.043C-418.533-130.83-422.076-130.88-424.1-129.678Z" transform="translate(1097.727 351.985)" fill="#dee0e5"/>
    <g id="backup-restore-outline-alerted" transform="translate(868.846 195.856)">
      <path id="Path_890" data-name="Path 890" d="M6,22H29.5v1.958H6Z" transform="translate(-0.084 -0.452)" fill="#dee0e5"/>
      <path id="Path_891" data-name="Path 891" d="M26,26h3.916v1.958H26Z" transform="translate(-0.505 -0.536)" fill="#dee0e5"/>
      <path id="Path_892" data-name="Path 892" d="M12.966,9.757l3.916-3.838V18.646a.979.979,0,1,0,1.958,0V5.919l1.439,1.429L21.258,5.6l-3.4-3.436L11.605,8.367a.979.979,0,0,0,1.361,1.39Z" transform="translate(-0.197 -0.035)" fill="#dee0e5"/>
      <path id="Path_893" data-name="Path 893" d="M30.958,15.328H28.883c.979,2.79,2.261,6.236,2.487,6.931v7.362H3.958V22.26c.274-.813,2.986-8.3,2.986-8.3h7.783V12H6.963A1.88,1.88,0,0,0,5.1,13.292C2,21.79,2,21.888,2,22.113v7.509a1.958,1.958,0,0,0,1.958,1.958H31.369a1.958,1.958,0,0,0,1.958-1.958V22.113C33.327,21.907,33.327,21.79,30.958,15.328Z" transform="translate(0 -0.242)" fill="#dee0e5"/>
      <path id="Path_894" data-name="Path 894" d="M26.725,1.127l-5.6,9.653A1.253,1.253,0,0,0,22.2,12.737H33.411a1.253,1.253,0,0,0,1.077-1.958l-5.6-9.653a1.253,1.253,0,0,0-2.164,0Z" transform="translate(-0.398 0)" fill="#dee0e5"/>
    </g>
  </g>
</svg>
