<?xml version="1.0" standalone="no"?>
<!DOCTYPE svg PUBLIC "-//W3C//DTD SVG 20010904//EN"
 "http://www.w3.org/TR/2001/REC-SVG-20010904/DTD/svg10.dtd">
<svg version="1.0" xmlns="http://www.w3.org/2000/svg"
 width="256.000000pt" height="256.000000pt" viewBox="0 0 256.000000 256.000000"
 preserveAspectRatio="xMidYMid meet">

<g transform="translate(0.000000,256.000000) scale(0.100000,-0.100000)"
fill="#000000" stroke="none">
<path d="M460 2227 c-48 -15 -113 -83 -128 -133 -17 -59 -17 -1569 0 -1628 16
-53 81 -118 134 -134 59 -17 1569 -17 1628 0 53 16 118 81 134 134 9 30 12
162 12 483 l0 441 -105 0 -105 0 -2 -427 -3 -428 -745 0 -745 0 0 745 0 745
533 3 532 2 0 105 0 105 -552 -1 c-375 -1 -564 -5 -588 -12z"/>
<path d="M1627 1609 l-456 -450 -166 162 -166 163 -69 -69 c-39 -38 -70 -74
-70 -80 0 -16 468 -480 477 -472 4 4 245 245 535 535 l528 527 -67 67 c-37 38
-73 68 -79 68 -6 0 -216 -203 -467 -451z"/>
</g>
</svg>
