<svg xmlns="http://www.w3.org/2000/svg" width="14.166" height="14.166" viewBox="0 0 14.166 14.166">
  <path id="Icon_awesome-linkedin" data-name="Icon awesome-linkedin" d="M13.154,2.25H1.009A1.016,1.016,0,0,0,0,3.271V15.395a1.016,1.016,0,0,0,1.009,1.021H13.154a1.019,1.019,0,0,0,1.012-1.021V3.271A1.019,1.019,0,0,0,13.154,2.25ZM4.281,14.392h-2.1V7.632h2.1v6.76ZM3.232,6.709A1.217,1.217,0,1,1,4.449,5.491,1.218,1.218,0,0,1,3.232,6.709Zm8.92,7.684h-2.1V11.1c0-.784-.016-1.793-1.091-1.793-1.094,0-1.262.854-1.262,1.736v3.345H5.6V7.632H7.614v.923h.028A2.211,2.211,0,0,1,9.632,7.464c2.125,0,2.52,1.4,2.52,3.222Z" transform="translate(0 -2.25)" fill="#707070"/>
</svg>
