<svg xmlns="http://www.w3.org/2000/svg" width="16.143" height="13.111" viewBox="0 0 16.143 13.111">
  <path id="Icon_awesome-twitter" data-name="Icon awesome-twitter" d="M14.483,6.648c.01.143.01.287.01.43A9.349,9.349,0,0,1,5.08,16.492,9.349,9.349,0,0,1,0,15.006a6.844,6.844,0,0,0,.8.041,6.626,6.626,0,0,0,4.107-1.414,3.314,3.314,0,0,1-3.093-2.294,4.172,4.172,0,0,0,.625.051,3.5,3.5,0,0,0,.871-.113A3.309,3.309,0,0,1,.656,8.031V7.99a3.332,3.332,0,0,0,1.5.42A3.313,3.313,0,0,1,1.127,3.985,9.4,9.4,0,0,0,7.948,7.447a3.735,3.735,0,0,1-.082-.758,3.312,3.312,0,0,1,5.726-2.264,6.514,6.514,0,0,0,2.1-.8A3.3,3.3,0,0,1,14.238,5.45a6.632,6.632,0,0,0,1.905-.512,7.112,7.112,0,0,1-1.659,1.711Z" transform="translate(0 -3.381)" fill="#707070"/>
</svg>
