<svg xmlns="http://www.w3.org/2000/svg" width="17.061" height="11.996" viewBox="0 0 17.061 11.996">
  <path id="Icon_awesome-youtube" data-name="Icon awesome-youtube" d="M17.754,6.377a2.144,2.144,0,0,0-1.508-1.518A50.66,50.66,0,0,0,9.58,4.5a50.66,50.66,0,0,0-6.665.359A2.144,2.144,0,0,0,1.406,6.377,22.488,22.488,0,0,0,1.05,10.51a22.488,22.488,0,0,0,.356,4.133,2.112,2.112,0,0,0,1.508,1.494A50.66,50.66,0,0,0,9.58,16.5a50.66,50.66,0,0,0,6.665-.359,2.112,2.112,0,0,0,1.508-1.494,22.488,22.488,0,0,0,.356-4.133,22.488,22.488,0,0,0-.356-4.133Zm-9.919,6.67V7.973l4.459,2.537L7.835,13.047Z" transform="translate(-1.05 -4.5)" fill="#707070"/>
</svg>
